<?xml version="1.0" encoding="UTF-8" standalone="no"?>
<!-- Created with Inkscape (http://www.inkscape.org/) -->

<svg
   xmlns:dc="http://purl.org/dc/elements/1.1/"
   xmlns:cc="http://creativecommons.org/ns#"
   xmlns:rdf="http://www.w3.org/1999/02/22-rdf-syntax-ns#"
   xmlns:svg="http://www.w3.org/2000/svg"
   xmlns="http://www.w3.org/2000/svg"
   xmlns:xlink="http://www.w3.org/1999/xlink"
   xmlns:sodipodi="http://sodipodi.sourceforge.net/DTD/sodipodi-0.dtd"
   xmlns:inkscape="http://www.inkscape.org/namespaces/inkscape"
   width="256"
   height="256"
   sodipodi:version="0.32"
   inkscape:version="0.91 r13725"
   version="1.0"
   sodipodi:docname="arch-classroom.svg"
   inkscape:output_extension="org.inkscape.output.svg.inkscape"
   inkscape:export-xdpi="90"
   inkscape:export-ydpi="90"
   id="svg2">
  <defs
     id="defs2426">
    <linearGradient
       gradientUnits="userSpaceOnUse"
       id="path1082_2_"
       y2="129.3468"
       x2="112.49853"
       y1="6.1372099"
       x1="112.49854"
       gradientTransform="translate(287,-83)">
      <stop
         id="stop193"
         offset="0"
         style="stop-color:#ffffff;stop-opacity:0" />
      <stop
         id="stop195"
         offset="1"
         style="stop-color:#ffffff;stop-opacity:0.27450982;" />
      <midPointStop
         id="midPointStop197"
         style="stop-color:#FFFFFF"
         offset="0" />
      <midPointStop
         id="midPointStop199"
         style="stop-color:#FFFFFF"
         offset="0.5" />
      <midPointStop
         id="midPointStop201"
         style="stop-color:#000000"
         offset="1" />
    </linearGradient>
    <linearGradient
       inkscape:collect="always"
       xlink:href="#path1082_2_"
       id="linearGradient2544"
       gradientUnits="userSpaceOnUse"
       gradientTransform="matrix(-0.6066055,0,0,0.6065715,524.31501,9.2325237)"
       x1="541.33502"
       y1="104.50665"
       x2="606.91248"
       y2="303.14029" />
  </defs>
  <sodipodi:namedview
     id="base"
     pagecolor="#ffffff"
     bordercolor="#666666"
     borderopacity="1.0"
     gridtolerance="10000"
     guidetolerance="10"
     objecttolerance="10"
     inkscape:pageopacity="0.0"
     inkscape:pageshadow="2"
     inkscape:zoom="2.9168155"
     inkscape:cx="189.88387"
     inkscape:cy="64.583301"
     inkscape:document-units="px"
     inkscape:current-layer="g2424"
     inkscape:window-width="2878"
     inkscape:window-height="1601"
     inkscape:window-x="0"
     inkscape:window-y="17"
     showgrid="false"
     inkscape:window-maximized="0" />
  <metadata
     id="metadata2429">
    <rdf:RDF>
      <cc:Work
         rdf:about="">
        <dc:format>image/svg+xml</dc:format>
        <dc:type
           rdf:resource="http://purl.org/dc/dcmitype/StillImage" />
        <dc:title></dc:title>
      </cc:Work>
    </rdf:RDF>
  </metadata>
  <g
     inkscape:label="Layer 1"
     inkscape:groupmode="layer"
     id="layer1"
     transform="translate(-57.51784,-56.601259)">
    <g
       id="g2424"
       transform="matrix(0.8746356,0,0,0.8746356,14.730518,23.408954)">
      <path
         style="fill:#1793d1;fill-opacity:1;fill-rule:evenodd;stroke:none;stroke-width:1;stroke-linecap:round;stroke-linejoin:round;stroke-miterlimit:10;stroke-dasharray:none;stroke-opacity:1"
         d="M 127.98438 0.00390625 C 116.58955 27.940958 109.69835 46.23912 97.011719 73.345703 C 104.79021 81.59091 114.35193 91.15746 129.85742 102.00195 C 113.1875 95.142379 101.82385 88.273452 93.326172 81.126953 C 77.089708 115.00684 51.621649 163.24639 0 256 C 53.502859 225.11186 91.168603 209.81809 128.94141 210.07227 L 109.96289 204.57812 L 109.96289 175.5293 L 131.42969 181.74414 L 152.89453 175.5293 L 152.89453 204.57812 L 133.53711 210.18359 C 169.21901 211.61386 205.57225 226.88715 256 256 C 248.10808 241.47039 241.02582 228.38017 234.29883 215.90625 C 223.70273 207.69355 212.66363 197.00882 190.11914 185.4375 C 205.61494 189.46395 216.72098 194.12 225.36914 199.3125 C 156.97398 71.972667 151.43859 55.044279 127.98438 0.00390625 z M 131.42969 157.72266 L 170.72656 169.10156 L 131.42969 180.48242 L 92.130859 169.10156 L 131.42969 157.72266 z M 131.42969 168.10742 A 3.4377244 0.99548453 0 0 0 127.99023 169.10156 A 3.4377244 0.99548453 0 0 0 131.42969 170.09766 A 3.4377244 0.99548453 0 0 0 134.86719 169.10156 A 3.4377244 0.99548453 0 0 0 131.42969 168.10742 z "
         transform="matrix(1.1433333,0,0,1.1433333,48.92017,37.949867)"
         id="path2518" />
      <path
         sodipodi:nodetypes="ccc"
         id="path2522"
         d="M 277.64601,211.9169 C 214.20638,125.81103 199.50175,56.412315 195.77712,39.843809 C 229.61766,117.89834 229.38652,118.85552 277.64601,211.9169 z "
         style="fill:#ffffff;fill-opacity:0.16568047;fill-rule:evenodd;stroke:none;stroke-width:36.09999847;stroke-linecap:butt;stroke-linejoin:round;stroke-miterlimit:10;stroke-opacity:1" />
      <path
         style="fill:url(#linearGradient2544);fill-opacity:1;fill-rule:evenodd;stroke:none;stroke-width:0.71416688;stroke-linecap:round;stroke-linejoin:round;stroke-miterlimit:10;stroke-dasharray:none;stroke-opacity:1"
         d="M 128.46875 1.09375 C 127.04537 4.5929332 125.65868 7.9885065 124.34375 11.21875 C 122.88704 14.797158 121.50179 18.21332 120.125 21.5625 C 118.74833 24.911721 117.38391 28.180178 116.03125 31.40625 C 114.6785 34.632469 113.32212 37.822005 111.9375 41.03125 C 110.55297 44.240371 109.15981 47.483055 107.6875 50.78125 C 106.21519 54.079554 104.67835 57.444048 103.0625 60.9375 C 101.44651 64.430987 99.752803 68.049112 97.9375 71.84375 C 97.686063 72.369329 97.380881 72.967482 97.125 73.5 C 104.87955 81.713222 114.42652 91.217236 129.84375 102 C 113.21668 95.158054 101.86555 88.314206 93.375 81.1875 C 92.934181 82.087426 92.547895 82.890998 92.09375 83.8125 C 91.495997 85.025462 90.778291 86.40369 90.15625 87.65625 C 89.840832 88.302978 89.509737 88.998738 89.1875 89.65625 C 81.155622 106.045 70.844553 126.07711 56.96875 152.03125 C 89.434347 133.73963 124.45214 107.34926 188.0625 130.0625 C 184.87318 124.022 181.94116 118.35715 179.1875 113.03125 C 176.43388 107.70518 173.87554 102.71647 171.5 98 C 169.12464 93.283632 166.92957 88.836958 164.875 84.625 C 162.82045 80.41314 160.916 76.437731 159.125 72.625 C 157.3339 68.812358 155.64736 65.143564 154.0625 61.625 C 152.47754 58.106481 150.96749 54.735691 149.53125 51.40625 C 148.09486 48.076634 146.71986 44.807946 145.375 41.5625 C 144.03001 38.316959 142.71709 35.079261 141.40625 31.8125 C 141.07332 30.982987 140.73929 30.116376 140.40625 29.28125 C 136.67793 20.541575 132.89919 11.50108 128.46875 1.09375 z "
         id="path2520"
         transform="matrix(1.1433333,0,0,1.1433333,48.92017,37.949867)" />
    </g>
  </g>
</svg>
